<svg>

  <symbol id="icon-arrow-down" viewBox="0 0 20 12" xmlns="http://www.w3.org/2000/svg">
    <path fill-rule="evenodd" clip-rule="evenodd" d="M19.6198 2.12729C20.0278 1.71928 20.0278 1.05777 19.6198 0.649758C19.2118 0.241747 18.5502 0.241747 18.1422 0.649758L10.0158 8.77622L1.88935 0.649788C1.48133 0.241778 0.81982 0.241777 0.41181 0.649788C0.00379944 1.0578 0.00379944 1.71931 0.41181 2.12732L9.27702 10.9925L9.27703 10.9925C9.68504 11.4006 10.3466 11.4006 10.7546 10.9925C10.7564 10.9907 10.7583 10.9888 10.7602 10.9869L19.6198 2.12729Z" fill="inherit"/>
  </symbol>

  <symbol id="icon-circle-with-arrow" viewBox="0 0 70 70" xmlns="http://www.w3.org/2000/svg">
    <path fill-rule="evenodd" clip-rule="evenodd" d="M44.6198 33.1273C45.0278 32.7193 45.0278 32.0578 44.6198 31.6498C44.2118 31.2417 43.5502 31.2417 43.1422 31.6498L35.0158 39.7762L26.8893 31.6498C26.4813 31.2418 25.8198 31.2418 25.4118 31.6498C25.0038 32.0578 25.0038 32.7193 25.4118 33.1273L34.277 41.9925L34.277 41.9925C34.685 42.4006 35.3466 42.4006 35.7546 41.9925C35.7564 41.9907 35.7583 41.9888 35.7602 41.9869L44.6198 33.1273Z" fill="inherit" stroke="none"/>
    <circle cx="35" cy="35" r="34.5" transform="rotate(90 35 35)" stroke="inherit" fill="transparent"/>
  </symbol>

  <symbol id="icon-circle-with-arrow-small" viewBox="0 0 20 20" fill="none" xmlns="http://www.w3.org/2000/svg">
    <path fill-rule="evenodd" clip-rule="evenodd" d="M10 18.75C14.8325 18.75 18.75 14.8325 18.75 10C18.75 5.16751 14.8325 1.25 10 1.25C5.16751 1.25 1.25 5.16751 1.25 10C1.25 14.8325 5.16751 18.75 10 18.75ZM10 20C15.5228 20 20 15.5228 20 10C20 4.47715 15.5228 0 10 0C4.47715 0 0 4.47715 0 10C0 15.5228 4.47715 20 10 20Z" fill="#F36C67"/>
    <path fill-rule="evenodd" clip-rule="evenodd" d="M8.09466 5.80817C8.33874 5.56409 8.73447 5.56409 8.97855 5.80817L12.5141 9.3437C12.7582 9.58778 12.7582 9.98351 12.5141 10.2276L8.97855 13.7631C8.73447 14.0072 8.33874 14.0072 8.09466 13.7631C7.85059 13.519 7.85059 13.1233 8.09466 12.8792L11.1883 9.78564L8.09466 6.69205C7.85059 6.44797 7.85059 6.05225 8.09466 5.80817Z" fill="#F36C67"/>
  </symbol>

  <symbol id="icon-shild" viewBox="0 0 289 345" fill="none" xmlns="http://www.w3.org/2000/svg">
    <path d="M144.5 0C144.5 0 84.707 72.6494 0.992369 79.5208C0.992369 79.5208 -21.2171 278.872 144.5 344.177C310.217 278.872 288.008 79.5208 288.008 79.5208C204.293 72.6494 144.5 0 144.5 0Z" fill="white" fill-opacity="0.54"/>
    <path d="M144.501 307.484C93.7197 283.524 59.7687 240.987 43.5258 180.577C37.3356 156.98 34.0096 132.719 33.6191 108.322C82.0975 96.659 120.828 68.6573 144.501 47.6281C168.174 68.6574 206.925 96.6587 255.387 108.321C254.991 132.718 251.664 156.979 245.476 180.576C229.233 240.987 195.282 283.524 144.501 307.484Z" stroke="#F36C67" stroke-width="5"/>
    <path d="M144.498 228.267C179.48 228.267 207.839 199.74 207.839 164.55C207.839 129.36 179.48 100.833 144.498 100.833C109.515 100.833 81.1562 129.36 81.1562 164.55C81.1562 199.74 109.515 228.267 144.498 228.267Z" fill="white"/>
    <path d="M135.683 189.374C133.849 189.374 132.075 188.721 130.675 187.531L110.661 170.512C109.142 169.161 108.21 167.265 108.063 165.23C107.917 163.196 108.567 161.184 109.876 159.626C111.184 158.068 113.047 157.086 115.065 156.892C117.084 156.697 119.098 157.305 120.677 158.585L135.527 171.195L168.143 141.705C169.684 140.403 171.668 139.754 173.676 139.895C175.683 140.036 177.558 140.956 178.905 142.461C180.251 143.966 180.964 145.938 180.892 147.961C180.821 149.985 179.971 151.901 178.522 153.306L140.872 187.344C139.453 188.645 137.603 189.369 135.683 189.374Z" fill="#FDA755"/>
  </symbol>

  <symbol id="icon-arrow-right" viewBox="0 0 71 95" fill="none" xmlns="http://www.w3.org/2000/svg">
    <path d="M1 1C1 25.7373 6.14734 46.6571 24.2059 64.7157C31.7735 72.2833 40.4711 78.7223 50.7653 82.1537C56.6688 84.1215 74.3199 88.8918 69.1422 85.44C65.8522 83.2467 60.7586 72.5264 60.7586 72.5264M69.1422 86.6584C65.4356 88.7177 57.6128 92.0264 54.1188 93.9578" stroke="white" stroke-linecap="round" stroke-linejoin="round" stroke-dasharray="1 2"/>
  </symbol>

  <symbol id="icon-instagram" viewBox="0 0 108 108" fill="none" xmlns="http://www.w3.org/2000/svg">
    <path fill-rule="evenodd" clip-rule="evenodd" d="M30.4669 101.457C36.2151 101.994 43.6008 102 54 102C64.3992 102 71.7849 101.994 77.5331 101.457C83.1946 100.928 86.6569 99.9251 89.3667 98.3009C93.0341 96.1028 96.1028 93.0341 98.3009 89.3667C99.9251 86.6569 100.928 83.1946 101.457 77.5331C101.994 71.7849 102 64.3992 102 54C102 43.6008 101.994 36.2151 101.457 30.4669C100.928 24.8054 99.9251 21.3431 98.3009 18.6333C96.1028 14.9659 93.0341 11.8972 89.3667 9.69906C86.6569 8.07487 83.1946 7.07195 77.5331 6.54308C71.7849 6.00611 64.3992 6 54 6C43.6008 6 36.2151 6.00611 30.4669 6.54308C24.8054 7.07195 21.3431 8.07487 18.6333 9.69906C14.9659 11.8972 11.8972 14.9659 9.69906 18.6333C8.07487 21.3431 7.07195 24.8054 6.54308 30.4669C6.00611 36.2151 6 43.6008 6 54C6 64.3992 6.00611 71.7849 6.54308 77.5331C7.07195 83.1946 8.07487 86.6569 9.69906 89.3667C11.8972 93.0341 14.9659 96.1028 18.6333 98.3009C21.3431 99.9251 24.8054 100.928 30.4669 101.457ZM4.55268 15.5487C0 23.1444 0 33.4296 0 54C0 74.5704 0 84.8556 4.55268 92.4513C7.25811 96.965 11.035 100.742 15.5487 103.447C23.1444 108 33.4296 108 54 108C74.5704 108 84.8556 108 92.4513 103.447C96.965 100.742 100.742 96.965 103.447 92.4513C108 84.8556 108 74.5704 108 54C108 33.4296 108 23.1444 103.447 15.5487C100.742 11.035 96.965 7.25811 92.4513 4.55268C84.8556 0 74.5704 0 54 0C33.4296 0 23.1444 0 15.5487 4.55268C11.035 7.25811 7.25811 11.035 4.55268 15.5487ZM90.0116 22.4955C90.0116 24.9808 87.9969 26.9955 85.5117 26.9955C83.0264 26.9955 81.0117 24.9808 81.0117 22.4955C81.0117 20.0103 83.0264 17.9956 85.5117 17.9956C87.9969 17.9956 90.0116 20.0103 90.0116 22.4955ZM79.4764 53.9999C79.4764 68.0832 68.0597 79.5 53.9765 79.5C39.8933 79.5 28.4766 68.0832 28.4766 53.9999C28.4766 39.9166 39.8933 28.4999 53.9765 28.4999C68.0597 28.4999 79.4764 39.9166 79.4764 53.9999ZM85.4764 53.9999C85.4764 71.3969 71.3734 85.5 53.9765 85.5C36.5796 85.5 22.4766 71.3969 22.4766 53.9999C22.4766 36.6029 36.5796 22.4999 53.9765 22.4999C71.3734 22.4999 85.4764 36.6029 85.4764 53.9999Z" fill="white"/>
  </symbol>

  <symbol id="icon-youtube" viewBox="0 0 108 108" fill="none" xmlns="http://www.w3.org/2000/svg">
    <path d="M97.0885 55.8073C96.5669 53.4361 95.4105 51.4477 93.6232 49.841C91.8344 48.2344 89.7757 47.29 87.4446 47.0086C80.0522 46.2052 68.9029 45.8037 53.9957 45.8037C39.0888 45.8037 27.9595 46.2054 20.6065 47.0086C18.2366 47.29 16.1675 48.2344 14.399 49.841C12.6309 51.4483 11.4656 53.437 10.9029 55.8073C9.85839 60.4688 9.33594 67.4999 9.33594 76.9019C9.33594 86.4641 9.85839 93.4957 10.9029 97.9962C11.426 100.366 12.5813 102.356 14.3692 103.962C16.1571 105.569 18.2163 106.493 20.5464 106.734C27.94 107.578 39.0901 108 53.9961 108C68.901 108 80.0532 107.578 87.4441 106.734C89.7752 106.493 91.8239 105.569 93.5924 103.962C95.3607 102.356 96.5259 100.366 97.0881 97.9962C98.1325 93.3346 98.6556 86.3036 98.6556 76.9019C98.6554 67.3394 98.1323 60.3076 97.0885 55.8073ZM34.8315 61.8956H28.3829V96.1873H22.3565V61.8956H16.028V56.2306H34.8318V61.8956H34.8315ZM51.1035 96.1873H45.7397V92.9321C43.5701 95.3839 41.5202 96.6091 39.5917 96.6091C37.7438 96.6091 36.5783 95.8652 36.0968 94.3791C35.7758 93.4149 35.6143 91.9476 35.6143 89.9791V66.4149H40.9781V88.3523C40.9781 89.6374 40.9984 90.341 41.0389 90.4617C41.1594 91.3054 41.581 91.7272 42.3046 91.7272C43.3892 91.7272 44.535 90.8835 45.7399 89.196V66.4149H51.1037V96.1873H51.1035ZM71.5948 87.2673C71.5948 90.2002 71.4143 92.2104 71.0544 93.2956C70.3696 95.504 68.9443 96.6091 66.7749 96.6091C64.8462 96.6091 62.9782 95.504 61.1692 93.2956V96.188H55.8062V56.2306H61.1692V69.3087C62.8978 67.1402 64.7653 66.0552 66.7749 66.0552C68.9443 66.0552 70.3696 67.1805 71.0544 69.4301C71.4141 70.4746 71.5948 72.4632 71.5948 75.3963V87.2673ZM91.9655 82.326H81.1779V87.5693C81.1779 90.3418 82.1012 91.7272 83.9497 91.7272C85.2752 91.7272 86.0794 91.0048 86.3604 89.5572C86.4398 89.1557 86.4809 87.9305 86.4809 85.8817H91.9653V86.6648C91.9653 88.6341 91.9241 89.7987 91.8446 90.1611C91.7249 91.2446 91.3042 92.3296 90.5791 93.4146C89.1327 95.5443 86.9612 96.6091 84.0688 96.6091C81.2978 96.6091 79.1278 95.5842 77.5602 93.536C76.3956 92.0493 75.8134 89.7189 75.8134 86.5447V76.1176C75.8134 72.9437 76.3754 70.6132 77.4994 69.1265C79.0672 67.0779 81.2167 66.0535 83.9497 66.0535C86.6422 66.0535 88.7732 67.0779 90.338 69.1265C91.4243 70.6132 91.9655 72.9437 91.9655 76.1176V82.326Z" fill="white"/>
    <path d="M63.8838 70.9358C62.9592 70.9358 62.0561 71.3793 61.1719 72.2621V90.402C62.0559 91.2856 62.9592 91.7274 63.8838 91.7274C65.4499 91.7274 66.2353 90.3823 66.2353 87.6892V74.974C66.2351 72.2815 65.4515 70.9358 63.8838 70.9358Z" fill="white"/>
    <path d="M83.8916 70.9358C82.0836 70.9358 81.1797 72.3026 81.1797 75.0331V77.8055H86.6033V75.0331C86.6033 72.3011 85.6989 70.9358 83.8916 70.9358Z" fill="white"/>
    <path d="M31.3403 24.0469V40.3801H37.3668V24.0469L44.6581 0H38.5109L34.4136 15.8506L30.1341 0H23.7461C24.8712 3.37535 26.177 7.13172 27.6637 11.2704C29.5524 16.8147 30.7771 21.0743 31.3403 24.0469Z" fill="white"/>
    <path d="M52.7343 40.8023C55.5068 40.8023 57.6356 39.7777 59.1224 37.7286C60.2479 36.2419 60.8098 33.8711 60.8098 30.6171V20.0698C60.8098 16.8559 60.2464 14.5048 59.1224 13.018C57.6356 10.969 55.5068 9.94434 52.7343 9.94434C50.0416 9.94434 47.932 10.969 46.4058 13.018C45.2813 14.5048 44.7188 16.8559 44.7188 20.0698V30.6169C44.7188 33.8308 45.2807 36.2018 46.4058 37.7284C47.9326 39.7777 50.0414 40.8023 52.7343 40.8023ZM50.1423 18.9847C50.1423 16.2123 51.0063 14.826 52.7343 14.826C54.4623 14.826 55.3255 16.2123 55.3255 18.9847V31.6407C55.3255 34.4541 54.4623 35.8594 52.7343 35.8594C51.0063 35.8594 50.1423 34.4533 50.1423 31.6407V18.9847Z" fill="white"/>
    <path d="M69.2999 40.8021C71.3101 40.8021 73.3799 39.5564 75.5087 37.0647V40.3795H80.9931V10.3059H75.5087V33.2678C74.303 34.9958 73.1587 35.8589 72.0724 35.8589C71.3485 35.8589 70.9266 35.4171 70.8067 34.5333C70.7664 34.4529 70.7461 33.7491 70.7461 32.4236V10.3059H65.2617V34.052C65.2617 36.1006 65.4236 37.6068 65.7443 38.5717C66.2672 40.0584 67.452 40.8021 69.2999 40.8021Z" fill="white"/>
  </symbol>

  <symbol id="icon-close" viewBox="0 0 28 28" fill="none" xmlns="http://www.w3.org/2000/svg">
    <path fill-rule="evenodd" clip-rule="evenodd" d="M12.2432 13.8786L0 26.1216L1.63263 27.7542L13.8759 15.5112L26.365 28.0001L27.9976 26.3675L15.5085 13.8786L27.7546 1.6326L26.122 0L13.8759 12.246L1.87557 0.245865L0.242949 1.87846L12.2432 13.8786Z" fill="#F36C67"/>
  </symbol>

  <symbol id="icon-burger" viewBox="0 0 34 22" fill="none" xmlns="http://www.w3.org/2000/svg">
    <rect width="34" height="2" fill="#F36C67"/>
    <rect y="10" width="34" height="2" fill="#F36C67"/>
    <rect y="20" width="34" height="2" fill="#F36C67"/>
  </symbol>



</svg>
