<svg>

  <symbol id="icon-arrow-down" viewBox="0 0 20 12" xmlns="http://www.w3.org/2000/svg">
    <path fill-rule="evenodd" clip-rule="evenodd" d="M19.6198 2.12729C20.0278 1.71928 20.0278 1.05777 19.6198 0.649758C19.2118 0.241747 18.5502 0.241747 18.1422 0.649758L10.0158 8.77622L1.88935 0.649788C1.48133 0.241778 0.81982 0.241777 0.41181 0.649788C0.00379944 1.0578 0.00379944 1.71931 0.41181 2.12732L9.27702 10.9925L9.27703 10.9925C9.68504 11.4006 10.3466 11.4006 10.7546 10.9925C10.7564 10.9907 10.7583 10.9888 10.7602 10.9869L19.6198 2.12729Z" fill="inherit"/>
  </symbol>

  <symbol id="icon-circle-with-arrow" viewBox="0 0 70 70" xmlns="http://www.w3.org/2000/svg">
    <path fill-rule="evenodd" clip-rule="evenodd" d="M44.6198 33.1273C45.0278 32.7193 45.0278 32.0578 44.6198 31.6498C44.2118 31.2417 43.5502 31.2417 43.1422 31.6498L35.0158 39.7762L26.8893 31.6498C26.4813 31.2418 25.8198 31.2418 25.4118 31.6498C25.0038 32.0578 25.0038 32.7193 25.4118 33.1273L34.277 41.9925L34.277 41.9925C34.685 42.4006 35.3466 42.4006 35.7546 41.9925C35.7564 41.9907 35.7583 41.9888 35.7602 41.9869L44.6198 33.1273Z" fill="inherit" stroke="none"/>
    <circle cx="35" cy="35" r="34.5" transform="rotate(90 35 35)" stroke="inherit" fill="transparent"/>
  </symbol>

  <symbol id="icon-shild" viewBox="0 0 289 345" fill="none" xmlns="http://www.w3.org/2000/svg">
    <path d="M144.5 0C144.5 0 84.707 72.6494 0.992369 79.5208C0.992369 79.5208 -21.2171 278.872 144.5 344.177C310.217 278.872 288.008 79.5208 288.008 79.5208C204.293 72.6494 144.5 0 144.5 0Z" fill="white" fill-opacity="0.54"/>
    <path d="M144.501 307.484C93.7197 283.524 59.7687 240.987 43.5258 180.577C37.3356 156.98 34.0096 132.719 33.6191 108.322C82.0975 96.659 120.828 68.6573 144.501 47.6281C168.174 68.6574 206.925 96.6587 255.387 108.321C254.991 132.718 251.664 156.979 245.476 180.576C229.233 240.987 195.282 283.524 144.501 307.484Z" stroke="#F36C67" stroke-width="5"/>
    <path d="M144.498 228.267C179.48 228.267 207.839 199.74 207.839 164.55C207.839 129.36 179.48 100.833 144.498 100.833C109.515 100.833 81.1562 129.36 81.1562 164.55C81.1562 199.74 109.515 228.267 144.498 228.267Z" fill="white"/>
    <path d="M135.683 189.374C133.849 189.374 132.075 188.721 130.675 187.531L110.661 170.512C109.142 169.161 108.21 167.265 108.063 165.23C107.917 163.196 108.567 161.184 109.876 159.626C111.184 158.068 113.047 157.086 115.065 156.892C117.084 156.697 119.098 157.305 120.677 158.585L135.527 171.195L168.143 141.705C169.684 140.403 171.668 139.754 173.676 139.895C175.683 140.036 177.558 140.956 178.905 142.461C180.251 143.966 180.964 145.938 180.892 147.961C180.821 149.985 179.971 151.901 178.522 153.306L140.872 187.344C139.453 188.645 137.603 189.369 135.683 189.374Z" fill="#FDA755"/>
  </symbol>

  <symbol id="icon-arrow-right" viewBox="0 0 71 95" fill="none" xmlns="http://www.w3.org/2000/svg">
    <path d="M1 1C1 25.7373 6.14734 46.6571 24.2059 64.7157C31.7735 72.2833 40.4711 78.7223 50.7653 82.1537C56.6688 84.1215 74.3199 88.8918 69.1422 85.44C65.8522 83.2467 60.7586 72.5264 60.7586 72.5264M69.1422 86.6584C65.4356 88.7177 57.6128 92.0264 54.1188 93.9578" stroke="white" stroke-linecap="round" stroke-linejoin="round" stroke-dasharray="1 2"/>
  </symbol>

</svg>
